<?xml version="1.0" ?><!DOCTYPE svg  PUBLIC '-//W3C//DTD SVG 1.1//EN'  'http://www.w3.org/Graphics/SVG/1.1/DTD/svg11.dtd'><svg enable-background="new 0 0 141.732 141.732" height="141.732px" id="Livello_1" version="1.1" viewBox="0 0 141.732 141.732" width="141.732px" xml:space="preserve" xmlns="http://www.w3.org/2000/svg" xmlns:xlink="http://www.w3.org/1999/xlink"><g id="Livello_8"><path d="M115.232,128.846H28.077V12.953h87.153L115.232,128.846L115.232,128.846z M68.204,135.457c0-1.904,1.543-3.445,3.448-3.445   c1.907,0,3.451,1.542,3.451,3.445c0,1.911-1.543,3.453-3.451,3.453C69.749,138.91,68.204,137.366,68.204,135.457 M126.496,5.441   h-0.006c0-0.047,0.006-0.091,0.006-0.138c0-2.929-2.374-5.303-5.304-5.303c-0.047,0-0.093,0.004-0.14,0.006V0H22.256v0.006   C22.21,0.004,22.165,0,22.117,0c-2.93,0-5.304,2.374-5.304,5.304c0,0.047,0.006,0.091,0.007,0.138h-0.007v130.523h0.142   c-0.001,0.051-0.01,0.095-0.01,0.144c0,2.923,2.369,5.291,5.294,5.291c0.046,0,0.092-0.006,0.138-0.008v0.008h98.56v-0.008   c0.047,0.002,0.091,0.008,0.14,0.008c2.923,0,5.294-2.368,5.294-5.291c0-0.049-0.008-0.093-0.011-0.144h0.141L126.496,5.441   L126.496,5.441z"/></g><g id="Livello_1_1_"/></svg>